<svg width="16" height="16" viewBox="0 0 16 16" fill="none" xmlns="http://www.w3.org/2000/svg">
<path d="M12.5714 15.9995C11.1847 15.9995 9.93452 15.1642 9.40384 13.883C8.87316 12.6018 9.1665 11.1271 10.1471 10.1466C11.1276 9.16601 12.6023 8.87268 13.8835 9.40335C15.1647 9.93403 16 11.1842 16 12.5709C16 13.4803 15.6388 14.3523 14.9958 14.9953C14.3528 15.6383 13.4807 15.9995 12.5714 15.9995ZM3.42857 15.9995C1.53502 15.9995 0 14.4645 0 12.5709C0 10.6774 1.53502 9.14237 3.42857 9.14237C5.32212 9.14237 6.85714 10.6774 6.85714 12.5709C6.85714 13.4803 6.49592 14.3523 5.85294 14.9953C5.20996 15.6383 4.33789 15.9995 3.42857 15.9995ZM12.5714 6.85666C10.6779 6.85666 9.14286 5.32163 9.14286 3.42808C9.14286 1.53454 10.6779 -0.000488281 12.5714 -0.000488281C14.465 -0.000488281 16 1.53454 16 3.42808C16 5.32163 14.465 6.85666 12.5714 6.85666ZM3.42857 6.85666C1.53502 6.85666 0 5.32163 0 3.42808C0 1.53454 1.53502 -0.000488281 3.42857 -0.000488281C5.32212 -0.000488281 6.85714 1.53454 6.85714 3.42808C6.85714 4.3374 6.49592 5.20947 5.85294 5.85245C5.20996 6.49543 4.33789 6.85666 3.42857 6.85666Z" fill="#0E0F0F"/>
</svg>
